<?xml version="1.0" encoding="UTF-8"?>
<svg width="1436px" height="1073px" viewBox="0 0 1436 1073" version="1.1" xmlns="http://www.w3.org/2000/svg" xmlns:xlink="http://www.w3.org/1999/xlink">
    <title>circle</title>
    <defs>
        <filter x="-1.1%" y="-3.6%" width="102.2%" height="107.2%" filterUnits="objectBoundingBox" id="filter-1">
            <feGaussianBlur stdDeviation="2" in="SourceGraphic"></feGaussianBlur>
        </filter>
        <filter x="0.0%" y="0.0%" width="100.0%" height="100.0%" filterUnits="objectBoundingBox" id="filter-2">
            <feGaussianBlur stdDeviation="0" in="SourceGraphic"></feGaussianBlur>
        </filter>
        <linearGradient x1="50%" y1="0%" x2="50%" y2="100%" id="linearGradient-3">
            <stop stop-color="#3AF1FF" offset="0%"></stop>
            <stop stop-color="#27F1AE" offset="100%"></stop>
        </linearGradient>
        <radialGradient cx="50%" cy="0%" fx="50%" fy="0%" r="100%" gradientTransform="translate(0.500000,0.000000),scale(0.636207,1.000000),rotate(90.000000),translate(-0.500000,-0.000000)" id="radialGradient-4">
            <stop stop-color="#5F1F25" offset="0%"></stop>
            <stop stop-color="#FF0128" offset="100%"></stop>
        </radialGradient>
        <radialGradient cx="50%" cy="0%" fx="50%" fy="0%" r="100%" gradientTransform="translate(0.500000,0.000000),scale(0.636207,1.000000),rotate(90.000000),translate(-0.500000,-0.000000)" id="radialGradient-5">
            <stop stop-color="#5F1F25" offset="0%"></stop>
            <stop stop-color="#FF0128" offset="100%"></stop>
        </radialGradient>
        <filter x="-1.8%" y="-2.8%" width="103.6%" height="105.7%" filterUnits="objectBoundingBox" id="filter-6">
            <feGaussianBlur stdDeviation="2" in="SourceGraphic"></feGaussianBlur>
        </filter>
        <linearGradient x1="100%" y1="50%" x2="0%" y2="50%" id="linearGradient-7">
            <stop stop-color="#FBBE26" offset="0%"></stop>
            <stop stop-color="#FDE04E" offset="100%"></stop>
        </linearGradient>
        <linearGradient x1="-1.11022302e-14%" y1="50%" x2="100%" y2="50%" id="linearGradient-8">
            <stop stop-color="#FDE04E" offset="0%"></stop>
            <stop stop-color="#FBBE26" offset="100%"></stop>
        </linearGradient>
        <linearGradient x1="50%" y1="0%" x2="50%" y2="100%" id="linearGradient-9">
            <stop stop-color="#000000" offset="0%"></stop>
            <stop stop-color="#E10B1F" offset="100%"></stop>
        </linearGradient>
        <filter x="0.0%" y="-0.0%" width="100.0%" height="100.0%" filterUnits="objectBoundingBox" id="filter-10">
            <feGaussianBlur stdDeviation="0" in="SourceGraphic"></feGaussianBlur>
        </filter>
        <text id="text-11" font-family="Papyrus" font-size="28" font-weight="normal" fill="#000000">
            <tspan x="379" y="470">Toobe GuangZhou University Ykse Alibaba Artsalliancemedia</tspan>
        </text>
        <filter x="-51.4%" y="-83.7%" width="202.9%" height="255.8%" filterUnits="objectBoundingBox" id="filter-12">
            <feOffset dx="0" dy="-2" in="SourceAlpha" result="shadowOffsetOuter1"></feOffset>
            <feGaussianBlur stdDeviation="2" in="shadowOffsetOuter1" result="shadowBlurOuter1"></feGaussianBlur>
            <feColorMatrix values="0 0 0 0 0   0 0 0 0 0   0 0 0 0 0  0 0 0 0.693536932 0" type="matrix" in="shadowBlurOuter1"></feColorMatrix>
        </filter>
    </defs>
    <g id="logo" stroke="none" stroke-width="1" fill="none" fill-rule="evenodd">
        <path d="M631.196711,1000.82771 C622.024762,1002.37941 612.989015,1004.0424 603.685264,1005.49733 C593.99868,1007.00951 591.523277,1007.81418 593.514316,1009.66755 C595.227126,1011.2562 602.007284,1009.55319 606.701353,1009.0031 C609.783837,1008.64213 612.896348,1008.01478 615.872495,1007.45283 C622.940501,1006.11715 626.495109,1006.13931 627.799033,1007.54916 C628.742863,1008.56592 630.534712,1009.51479 633.276897,1010.19608 C635.006747,1010.6253 639.179906,1010.50584 642.26216,1010.63164 C643.890223,1009.73138 647.137146,1008.62648 646.878401,1007.96575 C645.825466,1005.32466 643.754889,1002.81294 641.922356,1000.27693 C641.737061,1000.01632 640.499226,999.90273 639.266176,999.603443 M502.48098,965.554958 C502.69575,966.093324 502.43082,966.715254 503.210652,967.154409 C509.843118,970.87272 516.798499,974.544583 523.568745,978.258738 C537.71002,985.937997 552.008745,993.632116 566.437712,1001.34466 C570.622283,1003.56082 570.482007,1003.59995 584.740375,1001.81545 C603.888823,999.41399 623.054763,997.074779 642.065812,994.525354 C650.091348,993.446802 654.031932,993.558168 657.422042,994.552062 C667.258482,997.42488 677.912333,1000.13288 687.784968,1003.01762 C690.88126,1003.91904 694.305301,1003.95987 701.088632,1002.84149 C779.897461,989.7602 858.178658,976.659835 935.813206,963.467898 C938.568289,962.996447 940.908842,962.251984 945.638453,961.09922 C939.784146,961.382025 936.741262,961.398887 933.578816,961.703486 C906.999799,964.26234 880.355766,966.86771 853.668834,969.456946 C794.22635,975.191941 734.539163,980.930047 674.655492,986.560644 C670.502401,986.949342 665.437351,987.014581 662.8503,986.658959 C615.494362,980.130033 568.834222,973.522174 522.347234,966.978313 C516.957622,966.216757 511.002952,965.610541 505.319184,964.932204 M523.552765,963.05689 C524.817407,961.810551 525.983181,961.139467 525.958252,960.612557 C525.758397,955.437781 531.008118,949.796669 543.0108,943.809615 C558.806395,935.928141 584.693308,929.074685 616.92341,923.624117 C635.437026,920.481392 655.047378,918.208087 673.541105,915.081516 C691.32554,912.066754 709.070675,908.686946 725.456355,905.049574 C744.624946,900.782019 762.324316,896.062626 779.845688,891.721401 C771.686814,896.756288 757.577854,902.130441 742.353543,907.387486 C725.646649,913.14232 707.715827,918.826615 689.442973,924.444553 C669.897823,930.435378 653.398429,936.439769 642.176479,942.720267 C631.556451,948.666382 634.888125,952.456462 650.724584,954.441622 C680.230846,958.133553 726.816951,951.100941 745.856961,939.588666 C751.659884,936.08483 749.538891,932.756894 749.51373,929.537108 C749.509953,926.429899 747.151992,923.614383 746.51476,920.584147 C745.723331,916.694336 751.496993,912.747192 769.360194,908.302143 C792.550225,902.511861 816.044665,896.695199 834.134452,890.102605 C837.699311,888.801886 840.666096,887.466412 844.714249,885.81949 C846.59763,888.552005 839.572925,891.466508 833.020065,894.445806 C818.395413,901.089019 801.624084,907.769487 795.079617,914.29858 C791.249929,918.134778 802.148952,920.604376 818.284083,919.404999 C841.514163,917.674649 860.169494,912.949162 864.203903,907.269536 C867.799248,902.250063 869.48628,897.382746 870.605355,892.612844 C871.777046,887.783857 874.507272,882.817333 885.919473,877.349492 C892.619628,874.137429 903.500969,870.919486 912.494759,867.702177 C913.105816,867.739074 913.720009,867.775965 914.332966,867.811969 C911.308302,870.590719 907.682855,873.421041 905.415819,876.13496 C901.621177,880.706707 908.603119,883.661678 913.332285,886.941429 C920.569353,891.914508 928.405496,896.803134 925.269695,903.397596 C923.238547,907.737987 916.472595,911.963661 897.909313,916.296188 C879.884901,920.490467 862.34134,924.833254 844.891382,929.183413 C824.83956,934.167678 817.600268,940.96906 828.645721,944.040641 C837.623316,946.528718 863.502617,944.884358 879.979893,940.864473 C898.316194,936.37828 909.186971,931.844461 911.160161,927.057429 C912.055868,924.900198 913.728712,922.659437 915.571842,920.415657 C917.940546,917.542427 923.937783,914.620643 932.280027,911.641909 C942.789302,907.883087 952.768591,904.086266 964.381701,900.285121 C963.256197,901.345103 962.660187,902.388263 960.917275,903.467663 C950.434685,909.957108 954.245555,914.708693 959.285605,919.424523 C965.919345,925.548498 969.591692,932.125765 964.529208,939.82562 C960.679863,945.756058 951.825721,951.738752 931.33933,957.84944 C930.508014,958.097858 930.097678,958.401574 927.970516,959.373964 C956.171464,956.666959 982.781733,954.104701 1009.34613,951.537855 C1009.42345,951.744088 1009.50233,951.951215 1009.5766,952.157449 C1004.08016,953.21608 998.658883,954.323489 993.056614,955.323468 C945.730228,963.738506 898.172006,972.128259 850.330951,980.456098 C842.936613,981.737263 841.21166,982.827209 842.852326,984.07464 C845.396672,985.997623 847.543937,987.988037 850.294722,989.879747 C852.195024,991.181417 849.894911,992.544353 843.437817,993.873917 C814.46678,999.825509 785.430917,1005.77822 755.981206,1011.59489 C745.68974,1013.6213 739.602174,1013.50557 735.465655,1011.79185 C735.238195,1011.69666 735.111632,1011.58303 734.906521,1011.48344 C724.83669,1006.67869 699.557538,1008.55663 679.29417,1015.59666 C672.241084,1018.0419 672.926342,1020.80328 681.111148,1022.4433 C682.851994,1022.79 684.932812,1023.05156 686.806936,1023.36672 C692.961414,1024.40197 692.139543,1025.20049 682.400997,1026.92332 C664.932813,1030.00699 647.345753,1031.30962 629.903502,1032.53971 C623.848221,1032.96631 625.890573,1031.91768 627.300555,1030.87464 C630.464478,1028.5372 633.534075,1026.16912 634.81831,1023.96769 C635.32053,1023.11233 631.834256,1022.1114 628.447717,1022.19413 C624.492437,1022.28989 617.12745,1023.32506 613.96443,1024.25952 C608.379061,1025.91044 603.745685,1027.81801 600.729242,1029.57226 C595.360429,1032.69561 591.12908,1033.81342 577.889056,1034.54959 C559.616938,1035.56296 545.62322,1034.81588 534.906437,1032.92396 C533.474857,1032.67313 534.218607,1031.59694 535.766527,1030.93051 C540.631698,1028.83436 546.765828,1026.7579 551.603604,1024.65963 C554.955847,1023.20516 556.290949,1021.4873 550.187081,1021.56646 C545.751986,1021.62409 538.61287,1022.9396 532.945343,1023.86975 C530.616657,1024.25113 528.831774,1025.08911 527.088902,1025.73324 C520.032751,1028.34157 515.680234,1029.1393 505.560872,1029.09581 C495.094595,1029.0516 487.128434,1028.14486 484.159789,1026.06864 C479.969719,1023.12706 484.688387,1021.18597 501.783148,1018.45986 C524.7072,1014.79157 533.348672,1011.06279 525.913117,1008.07697 C521.226316,1006.18881 506.099063,1006.19353 494.444337,1008.08561 C480.119318,1010.40692 465.293355,1010.15171 465.072328,1007.13595 C464.705338,1001.55766 465.786181,995.814099 467.155529,990.052912 C467.699916,987.835754 472.870052,986.726135 483.340983,986.10781 C493.477863,985.509062 501.927124,983.586767 507.755742,981.544299 C510.498709,980.583015 509.444464,979.114037 507.919381,978.262162 C496.428731,971.807547 484.503245,965.459806 473.008576,959.063513 C471.749198,958.36118 471.175573,957.535836 470.28599,956.76766 C470.952563,956.639304 471.619758,956.509184 472.288195,956.379938" id="Fill-1" fill-opacity="0.36251639" fill="#D2D2D2" filter="url(#filter-1)"></path>
        <path d="M631.196711,1000.82771 C622.024762,1002.37941 612.989015,1004.0424 603.685264,1005.49733 C593.99868,1007.00951 591.523277,1007.81418 593.514316,1009.66755 C595.227126,1011.2562 602.007284,1009.55319 606.701353,1009.0031 C609.783837,1008.64213 612.896348,1008.01478 615.872495,1007.45283 C622.940501,1006.11715 626.495109,1006.13931 627.799033,1007.54916 C628.742863,1008.56592 630.534712,1009.51479 633.276897,1010.19608 C635.006747,1010.6253 639.179906,1010.50584 642.26216,1010.63164 C643.890223,1009.73138 647.137146,1008.62648 646.878401,1007.96575 C645.825466,1005.32466 643.754889,1002.81294 641.922356,1000.27693 C641.737061,1000.01632 640.499226,999.90273 639.266176,999.603443 M502.48098,965.554958 C502.69575,966.093324 502.43082,966.715254 503.210652,967.154409 C509.843118,970.87272 516.798499,974.544583 523.568745,978.258738 C537.71002,985.937997 552.008745,993.632116 566.437712,1001.34466 C570.622283,1003.56082 570.482007,1003.59995 584.740375,1001.81545 C603.888823,999.41399 623.054763,997.074779 642.065812,994.525354 C650.091348,993.446802 654.031932,993.558168 657.422042,994.552062 C667.258482,997.42488 677.912333,1000.13288 687.784968,1003.01762 C690.88126,1003.91904 694.305301,1003.95987 701.088632,1002.84149 C779.897461,989.7602 858.178658,976.659835 935.813206,963.467898 C938.568289,962.996447 940.908842,962.251984 945.638453,961.09922 C939.784146,961.382025 936.741262,961.398887 933.578816,961.703486 C906.999799,964.26234 880.355766,966.86771 853.668834,969.456946 C794.22635,975.191941 734.539163,980.930047 674.655492,986.560644 C670.502401,986.949342 665.437351,987.014581 662.8503,986.658959 C615.494362,980.130033 568.834222,973.522174 522.347234,966.978313 C516.957622,966.216757 511.002952,965.610541 505.319184,964.932204 M523.552765,963.05689 C524.817407,961.810551 525.983181,961.139467 525.958252,960.612557 C525.758397,955.437781 531.008118,949.796669 543.0108,943.809615 C558.806395,935.928141 584.693308,929.074685 616.92341,923.624117 C635.437026,920.481392 655.047378,918.208087 673.541105,915.081516 C691.32554,912.066754 709.070675,908.686946 725.456355,905.049574 C744.624946,900.782019 762.324316,896.062626 779.845688,891.721401 C771.686814,896.756288 757.577854,902.130441 742.353543,907.387486 C725.646649,913.14232 707.715827,918.826615 689.442973,924.444553 C669.897823,930.435378 653.398429,936.439769 642.176479,942.720267 C631.556451,948.666382 634.888125,952.456462 650.724584,954.441622 C680.230846,958.133553 726.816951,951.100941 745.856961,939.588666 C751.659884,936.08483 749.538891,932.756894 749.51373,929.537108 C749.509953,926.429899 747.151992,923.614383 746.51476,920.584147 C745.723331,916.694336 751.496993,912.747192 769.360194,908.302143 C792.550225,902.511861 816.044665,896.695199 834.134452,890.102605 C837.699311,888.801886 840.666096,887.466412 844.714249,885.81949 C846.59763,888.552005 839.572925,891.466508 833.020065,894.445806 C818.395413,901.089019 801.624084,907.769487 795.079617,914.29858 C791.249929,918.134778 802.148952,920.604376 818.284083,919.404999 C841.514163,917.674649 860.169494,912.949162 864.203903,907.269536 C867.799248,902.250063 869.48628,897.382746 870.605355,892.612844 C871.777046,887.783857 874.507272,882.817333 885.919473,877.349492 C892.619628,874.137429 903.500969,870.919486 912.494759,867.702177 C913.105816,867.739074 913.720009,867.775965 914.332966,867.811969 C911.308302,870.590719 907.682855,873.421041 905.415819,876.13496 C901.621177,880.706707 908.603119,883.661678 913.332285,886.941429 C920.569353,891.914508 928.405496,896.803134 925.269695,903.397596 C923.238547,907.737987 916.472595,911.963661 897.909313,916.296188 C879.884901,920.490467 862.34134,924.833254 844.891382,929.183413 C824.83956,934.167678 817.600268,940.96906 828.645721,944.040641 C837.623316,946.528718 863.502617,944.884358 879.979893,940.864473 C898.316194,936.37828 909.186971,931.844461 911.160161,927.057429 C912.055868,924.900198 913.728712,922.659437 915.571842,920.415657 C917.940546,917.542427 923.937783,914.620643 932.280027,911.641909 C942.789302,907.883087 952.768591,904.086266 964.381701,900.285121 C963.256197,901.345103 962.660187,902.388263 960.917275,903.467663 C950.434685,909.957108 954.245555,914.708693 959.285605,919.424523 C965.919345,925.548498 969.591692,932.125765 964.529208,939.82562 C960.679863,945.756058 951.825721,951.738752 931.33933,957.84944 C930.508014,958.097858 930.097678,958.401574 927.970516,959.373964 C956.171464,956.666959 982.781733,954.104701 1009.34613,951.537855 C1009.42345,951.744088 1009.50233,951.951215 1009.5766,952.157449 C1004.08016,953.21608 998.658883,954.323489 993.056614,955.323468 C945.730228,963.738506 898.172006,972.128259 850.330951,980.456098 C842.936613,981.737263 841.21166,982.827209 842.852326,984.07464 C845.396672,985.997623 847.543937,987.988037 850.294722,989.879747 C852.195024,991.181417 849.894911,992.544353 843.437817,993.873917 C814.46678,999.825509 785.430917,1005.77822 755.981206,1011.59489 C745.68974,1013.6213 739.602174,1013.50557 735.465655,1011.79185 C735.238195,1011.69666 735.111632,1011.58303 734.906521,1011.48344 C724.83669,1006.67869 699.557538,1008.55663 679.29417,1015.59666 C672.241084,1018.0419 672.926342,1020.80328 681.111148,1022.4433 C682.851994,1022.79 684.932812,1023.05156 686.806936,1023.36672 C692.961414,1024.40197 692.139543,1025.20049 682.400997,1026.92332 C664.932813,1030.00699 647.345753,1031.30962 629.903502,1032.53971 C623.848221,1032.96631 625.890573,1031.91768 627.300555,1030.87464 C630.464478,1028.5372 633.534075,1026.16912 634.81831,1023.96769 C635.32053,1023.11233 631.834256,1022.1114 628.447717,1022.19413 C624.492437,1022.28989 617.12745,1023.32506 613.96443,1024.25952 C608.379061,1025.91044 603.745685,1027.81801 600.729242,1029.57226 C595.360429,1032.69561 591.12908,1033.81342 577.889056,1034.54959 C559.616938,1035.56296 545.62322,1034.81588 534.906437,1032.92396 C533.474857,1032.67313 534.218607,1031.59694 535.766527,1030.93051 C540.631698,1028.83436 546.765828,1026.7579 551.603604,1024.65963 C554.955847,1023.20516 556.290949,1021.4873 550.187081,1021.56646 C545.751986,1021.62409 538.61287,1022.9396 532.945343,1023.86975 C530.616657,1024.25113 528.831774,1025.08911 527.088902,1025.73324 C520.032751,1028.34157 515.680234,1029.1393 505.560872,1029.09581 C495.094595,1029.0516 487.128434,1028.14486 484.159789,1026.06864 C479.969719,1023.12706 484.688387,1021.18597 501.783148,1018.45986 C524.7072,1014.79157 533.348672,1011.06279 525.913117,1008.07697 C521.226316,1006.18881 506.099063,1006.19353 494.444337,1008.08561 C480.119318,1010.40692 465.293355,1010.15171 465.072328,1007.13595 C464.705338,1001.55766 465.786181,995.814099 467.155529,990.052912 C467.699916,987.835754 472.870052,986.726135 483.340983,986.10781 C493.477863,985.509062 501.927124,983.586767 507.755742,981.544299 C510.498709,980.583015 509.444464,979.114037 507.919381,978.262162 C496.428731,971.807547 484.503245,965.459806 473.008576,959.063513 C471.749198,958.36118 471.175573,957.535836 470.28599,956.76766 C470.952563,956.639304 471.619758,956.509184 472.288195,956.379938" id="Fill-1" fill-opacity="0.470334353" fill="#D2D2D2" filter="url(#filter-2)"></path>
        <path d="M500,406 C683.910822,406 833,555.089178 833,739 C833,922.910822 683.910822,1072 500,1072 C316.089178,1072 167,922.910822 167,739 C167,555.089178 316.089178,406 500,406 Z M500,414 C320.507456,414 175,559.507456 175,739 C175,918.492544 320.507456,1064 500,1064 C679.492544,1064 825,918.492544 825,739 C825,559.507456 679.492544,414 500,414 Z" id="形状结合" stroke="#5FDDD3" fill="url(#linearGradient-3)"></path>
        <g id="U" transform="translate(509.000000, 488.000000)" fill="#94CFFF" stroke="#FEFFE4">
            <path d="M220.5,152 L1,152 L1.5,0.1986295 C8.38652305,0.471106891 14.7593453,1.02214784 21.4916914,1.84079541 L21,132 L187.5,132 C172.002609,106.179939 152.428859,84.457486 128.382355,66.5208364 L159.645896,66.4482557 C185.741408,90.3079581 206.368392,119.026854 220.5,152" id="路径"></path>
        </g>
        <g id="S" transform="translate(270.000000, 488.500000)" fill="#94CFFF" stroke="#FEFFE4" stroke-linecap="square">
            <path d="M0.116034642,152.085425 L220,152 L220,65 L94.0640768,64.9506695 C129.645674,38.8390122 173.014465,22.7155858 220.039023,20.7107253 L220.080326,0.693197788 C148.973569,3.46778216 85.491635,35.9412089 41.6915581,86.0564442 L200,85 L200,132 L9.78349806,132.056182 C6.27551738,138.564697 3.04764869,145.246492 0.116034642,152.085425" id="直线-4"></path>
        </g>
        <g id="T" transform="translate(209.500000, 659.500000)" fill="url(#radialGradient-4)" stroke="url(#radialGradient-5)" stroke-linecap="square" stroke-width="9">
            <path d="M20.7511919,91 L0.72389904,91.001429 C0.575094402,87.1860813 0.5,83.3518103 0.5,79.5 C0.5,52.0781533 4.30602103,25.6445187 11.4186228,0.5 L569.5,0.5 C576.577864,25.5878241 580.5,52.1476326 580.5,79.5 C580.5,83.4025209 580.422915,87.1349268 580.270185,91 L560.254017,91 C560.417455,87.1435735 560.5,83.3966387 560.5,79.5 C560.5,59.2435438 558.269311,39.4821975 554.040182,20.5 L300.625043,20.5 L300.5,20.5 L301,369.350327 C297.526118,369.473571 294.003953,369.5 290.5,369.5 C287.352499,369.5 284.123322,369.414143 281,369.314612 L280.5,20.5 L26.9349962,20.5 C22.7219609,39.4479697 20.5,59.2832103 20.5,79.5 C20.5,83.4378225 20.5842994,87.104691 20.7511919,91.001429" id="直线" filter="url(#filter-6)"></path>
            <path d="M20.7511919,91 L0.72389904,91.001429 C0.575094402,87.1860813 0.5,83.3518103 0.5,79.5 C0.5,52.0781533 4.30602103,25.6445187 11.4186228,0.5 L569.5,0.5 C576.577864,25.5878241 580.5,52.1476326 580.5,79.5 C580.5,83.4025209 580.422915,87.1349268 580.270185,91 L560.254017,91 C560.417455,87.1435735 560.5,83.3966387 560.5,79.5 C560.5,59.2435438 558.269311,39.4821975 554.040182,20.5 L300.625043,20.5 L300.5,20.5 L301,369.350327 C297.526118,369.473571 294.003953,369.5 290.5,369.5 C287.352499,369.5 284.123322,369.414143 281,369.314612 L280.5,20.5 L26.9349962,20.5 C22.7219609,39.4479697 20.5,59.2832103 20.5,79.5 C20.5,83.4378225 20.5842994,87.104691 20.7511919,91.001429" id="直线"></path>
        </g>
        <g id="A" transform="translate(250.000000, 700.000000)" fill="url(#linearGradient-7)">
            <path d="M220.5,0.5 L220.507902,287.278077 C213.751491,286.483907 207.072062,285.420321 200.49152,284.098352 L200.49152,284.098352 L200.5,110.5 L31.284144,110.5 C44.0338253,149.420122 66.8923258,183.832511 96.7487242,210.5 L96.7487242,210.5 L68.0824268,210.5 C25.6773845,165.702369 -1.42108547e-13,105.553784 -1.42108547e-13,39 C-1.42108547e-13,25.9634286 0.99784378,12.9982433 2.92132096,0.5 L2.92132096,0.5 L220.5,0.5 Z M200.5,20.5 L20.724772,20.5 C20.244637,26.5679595 20,32.8086255 20,39 C20,56.7409997 22.0086493,73.9123054 25.8109334,90.5 L25.8109334,90.5 L200.5,90.5 L200.5,20.5 Z" id="形状结合"></path>
        </g>
        <g id="O" transform="translate(530.000000, 700.000000)" fill="url(#linearGradient-8)">
            <path d="M217.064611,0.5 C218.99729,13.0271877 220,25.9316824 220,39 C220,166.718482 124.145935,272.067972 0.5,287.148325 L0.5,287.148325 L0.5,0.5 Z M199.300845,20.5 L20.5,20.5 L20.5,263.447608 C123.25337,240.447339 200,148.690998 200,39 C200,32.9197141 199.764063,26.4614181 199.300845,20.5 Z" id="形状结合"></path>
        </g>
        <g id="yuan" transform="translate(209.851643, 449.000000)" fill="url(#linearGradient-9)">
            <path d="M21,311.736602 C31.2360678,441.037193 132.404156,544.543918 260.652308,558.402102 L260.652308,558.402102 L260.656259,578.518837 C121.468083,564.460573 11.3424633,451.976059 0.950707129,311.736602 L0.950707129,311.736602 Z M579.360354,312 C569.083087,451.961807 459.382862,563.863207 320.648357,578.406116 L320.648357,558.278363 C448.267577,543.853738 548.943466,440.851994 559.148357,312 L579.360354,312 Z M290.148357,-2.84217094e-14 C415.746308,-2.84217094e-14 522.838887,80.3007141 563.150718,192 L563.150718,192 L541.684599,192 C502.37049,91.5062841 404.571576,20 290.148357,20 C175.695894,20 77.9426081,91.0471554 38.6483575,191.581543 L38.6483575,191.581543 L17.2754542,191.581543 C57.5766999,79.86229 164.53611,-2.84217094e-14 290.148357,-2.84217094e-14 Z" id="形状结合" filter="url(#filter-10)"></path>
        </g>
        <circle id="椭圆形" transform="translate(500.000000, 739.000000) scale(-1, 1) translate(-500.000000, -739.000000) " cx="500" cy="739" r="295"></circle>
        <g id="Toobe-GuangZhou-Univ" fill-rule="nonzero" transform="translate(760.000000, 465.500000) rotate(33.000000) translate(-760.000000, -465.500000) " fill="#000000" fill-opacity="1">
            <use filter="url(#filter-12)" xlink:href="#text-11"></use>
            <use xlink:href="#text-11"></use>
        </g>
        <path d="M1,432 L177.26114,610.67595 C187.329672,603.034634 199.885276,598.5 213.5,598.5 C229.975738,598.5 244.900457,605.140707 255.743566,615.891532 L377,509 L257.60236,617.818085 C267.471101,628.511227 273.5,642.801551 273.5,658.5 C273.5,672.518088 268.69269,685.41337 260.636737,695.627176 L429,868 L256.515242,700.329336 C245.614141,711.53754 230.370156,718.5 213.5,718.5 C195.614682,718.5 179.557131,710.674396 168.564604,698.260443 L111,748 L166.783373,696.153739 C158.474721,685.858262 153.5,672.760085 153.5,658.5 C153.5,641.250088 160.779445,625.700382 172.433995,614.755223 L1,432 Z M214,659 L170.293023,696.766383 C180.382097,708.828102 195.545115,716.5 212.5,716.5 C228.988691,716.5 243.782698,709.244198 253.863304,697.751311 L214,659 Z M157.5,661.5 C157.5,673.898019 161.602208,685.337916 168.523345,694.536412 L210.593392,655.433729 L176.931478,619.547589 C165.043926,629.636215 157.5,644.687119 157.5,661.5 Z M251.844291,623.067861 L219,653 L257.790788,692.713787 C263.913979,683.845985 267.5,673.091773 267.5,661.5 C267.5,646.544157 261.530542,632.982555 251.844291,623.067861 Z M212.5,606.5 C201.280285,606.5 190.845226,609.859516 182.145889,615.627486 L216.518378,650.470685 L249.82774,621.106077 C240.021781,612.040031 226.907862,606.5 212.5,606.5 Z" id="形状结合" stroke="#F9BC3B" fill="#F7C557"></path>
    </g>
</svg>