<?xml version="1.0" encoding="UTF-8"?>
<svg width="1010px" height="667px" viewBox="0 0 1010 667" version="1.1" xmlns="http://www.w3.org/2000/svg" xmlns:xlink="http://www.w3.org/1999/xlink">
    <title>circle</title>
    <defs>
        <filter x="-1.1%" y="-3.6%" width="102.2%" height="107.2%" filterUnits="objectBoundingBox" id="filter-1">
            <feGaussianBlur stdDeviation="2" in="SourceGraphic"></feGaussianBlur>
        </filter>
        <filter x="0.0%" y="0.0%" width="100.0%" height="100.0%" filterUnits="objectBoundingBox" id="filter-2">
            <feGaussianBlur stdDeviation="0" in="SourceGraphic"></feGaussianBlur>
        </filter>
        <linearGradient x1="50%" y1="0%" x2="50%" y2="100%" id="linearGradient-3">
            <stop stop-color="#3AF1FF" offset="0%"></stop>
            <stop stop-color="#27F1AE" offset="100%"></stop>
        </linearGradient>
        <radialGradient cx="50%" cy="0%" fx="50%" fy="0%" r="100%" gradientTransform="translate(0.500000,0.000000),scale(0.636207,1.000000),rotate(90.000000),translate(-0.500000,-0.000000)" id="radialGradient-4">
            <stop stop-color="#5F1F25" offset="0%"></stop>
            <stop stop-color="#FF0128" offset="100%"></stop>
        </radialGradient>
        <radialGradient cx="50%" cy="0%" fx="50%" fy="0%" r="100%" gradientTransform="translate(0.500000,0.000000),scale(0.636207,1.000000),rotate(90.000000),translate(-0.500000,-0.000000)" id="radialGradient-5">
            <stop stop-color="#5F1F25" offset="0%"></stop>
            <stop stop-color="#FF0128" offset="100%"></stop>
        </radialGradient>
        <filter x="-1.8%" y="-2.8%" width="103.6%" height="105.7%" filterUnits="objectBoundingBox" id="filter-6">
            <feGaussianBlur stdDeviation="2" in="SourceGraphic"></feGaussianBlur>
        </filter>
        <linearGradient x1="100%" y1="50%" x2="0%" y2="50%" id="linearGradient-7">
            <stop stop-color="#FBBE26" offset="0%"></stop>
            <stop stop-color="#FDE04E" offset="100%"></stop>
        </linearGradient>
        <linearGradient x1="-1.11022302e-14%" y1="50%" x2="100%" y2="50%" id="linearGradient-8">
            <stop stop-color="#FDE04E" offset="0%"></stop>
            <stop stop-color="#FBBE26" offset="100%"></stop>
        </linearGradient>
        <linearGradient x1="50%" y1="0%" x2="50%" y2="100%" id="linearGradient-9">
            <stop stop-color="#000000" offset="0%"></stop>
            <stop stop-color="#E10B1F" offset="100%"></stop>
        </linearGradient>
        <filter x="0.0%" y="-0.0%" width="100.0%" height="100.0%" filterUnits="objectBoundingBox" id="filter-10">
            <feGaussianBlur stdDeviation="0" in="SourceGraphic"></feGaussianBlur>
        </filter>
        <text id="text-11" font-family="Papyrus" font-size="28" font-weight="normal" fill="#000000">
            <tspan x="379" y="63.9999996">Toobe GuangZhou University Ykse Alibaba Artsalliancemedia</tspan>
        </text>
        <filter x="-51.4%" y="-83.7%" width="202.9%" height="255.8%" filterUnits="objectBoundingBox" id="filter-12">
            <feOffset dx="0" dy="-2" in="SourceAlpha" result="shadowOffsetOuter1"></feOffset>
            <feGaussianBlur stdDeviation="2" in="shadowOffsetOuter1" result="shadowBlurOuter1"></feGaussianBlur>
            <feColorMatrix values="0 0 0 0 0   0 0 0 0 0   0 0 0 0 0  0 0 0 0.693536932 0" type="matrix" in="shadowBlurOuter1"></feColorMatrix>
        </filter>
    </defs>
    <g id="logo" stroke="none" stroke-width="1" fill="none" fill-rule="evenodd">
        <path d="M631.196711,594.827707 C622.024762,596.379409 612.989015,598.042397 603.685264,599.497331 C593.99868,601.009511 591.523277,601.814184 593.514316,603.667553 C595.227126,605.256199 602.007284,603.553189 606.701353,603.003096 C609.783837,602.642134 612.896348,602.014783 615.872495,601.452827 C622.940501,600.117148 626.495109,600.139307 627.799033,601.549159 C628.742863,602.565922 630.534712,603.514787 633.276897,604.196082 C635.006747,604.6253 639.179906,604.50584 642.26216,604.631641 C643.890223,603.731377 647.137146,602.62648 646.878401,601.965747 C645.825466,599.324657 643.754889,596.812936 641.922356,594.276933 C641.737061,594.016324 640.499226,593.90273 639.266176,593.603443 M502.48098,559.554958 C502.69575,560.093324 502.43082,560.715254 503.210652,561.154409 C509.843118,564.87272 516.798499,568.544583 523.568745,572.258738 C537.71002,579.937997 552.008745,587.632116 566.437712,595.344663 C570.622283,597.560816 570.482007,597.599949 584.740375,595.815452 C603.888823,593.41399 623.054763,591.074779 642.065812,588.525354 C650.091348,587.446802 654.031932,587.558168 657.422042,588.552062 C667.258482,591.42488 677.912333,594.132885 687.784968,597.017615 C690.88126,597.919043 694.305301,597.959874 701.088632,596.841494 C779.897461,583.7602 858.178658,570.659835 935.813206,557.467898 C938.568289,556.996447 940.908842,556.251984 945.638453,555.09922 C939.784146,555.382025 936.741262,555.398887 933.578816,555.703486 C906.999799,558.26234 880.355766,560.86771 853.668834,563.456946 C794.22635,569.191941 734.539163,574.930047 674.655492,580.560644 C670.502401,580.949342 665.437351,581.014581 662.8503,580.658959 C615.494362,574.130033 568.834222,567.522174 522.347234,560.978313 C516.957622,560.216757 511.002952,559.610541 505.319184,558.932204 M523.552765,557.05689 C524.817407,555.810551 525.983181,555.139467 525.958252,554.612557 C525.758397,549.437781 531.008118,543.796669 543.0108,537.809615 C558.806395,529.928141 584.693308,523.074685 616.92341,517.624117 C635.437026,514.481392 655.047378,512.208087 673.541105,509.081516 C691.32554,506.066754 709.070675,502.686946 725.456355,499.049574 C744.624946,494.782019 762.324316,490.062626 779.845688,485.721401 C771.686814,490.756288 757.577854,496.130441 742.353543,501.387486 C725.646649,507.14232 707.715827,512.826615 689.442973,518.444553 C669.897823,524.435378 653.398429,530.439769 642.176479,536.720267 C631.556451,542.666382 634.888125,546.456462 650.724584,548.441622 C680.230846,552.133553 726.816951,545.100941 745.856961,533.588666 C751.659884,530.08483 749.538891,526.756894 749.51373,523.537108 C749.509953,520.429899 747.151992,517.614383 746.51476,514.584147 C745.723331,510.694336 751.496993,506.747192 769.360194,502.302143 C792.550225,496.511861 816.044665,490.695199 834.134452,484.102605 C837.699311,482.801886 840.666096,481.466412 844.714249,479.81949 C846.59763,482.552005 839.572925,485.466508 833.020065,488.445806 C818.395413,495.089019 801.624084,501.769487 795.079617,508.29858 C791.249929,512.134778 802.148952,514.604376 818.284083,513.404999 C841.514163,511.674649 860.169494,506.949162 864.203903,501.269536 C867.799248,496.250063 869.48628,491.382746 870.605355,486.612844 C871.777046,481.783857 874.507272,476.817333 885.919473,471.349492 C892.619628,468.137429 903.500969,464.919486 912.494759,461.702177 C913.105816,461.739074 913.720009,461.775965 914.332966,461.811969 C911.308302,464.590719 907.682855,467.421041 905.415819,470.13496 C901.621177,474.706707 908.603119,477.661678 913.332285,480.941429 C920.569353,485.914508 928.405496,490.803134 925.269695,497.397596 C923.238547,501.737987 916.472595,505.963661 897.909313,510.296188 C879.884901,514.490467 862.34134,518.833254 844.891382,523.183413 C824.83956,528.167678 817.600268,534.96906 828.645721,538.040641 C837.623316,540.528718 863.502617,538.884358 879.979893,534.864473 C898.316194,530.37828 909.186971,525.844461 911.160161,521.057429 C912.055868,518.900198 913.728712,516.659437 915.571842,514.415657 C917.940546,511.542427 923.937783,508.620643 932.280027,505.641909 C942.789302,501.883087 952.768591,498.086266 964.381701,494.285121 C963.256197,495.345103 962.660187,496.388263 960.917275,497.467663 C950.434685,503.957108 954.245555,508.708693 959.285605,513.424523 C965.919345,519.548498 969.591692,526.125765 964.529208,533.82562 C960.679863,539.756058 951.825721,545.738752 931.33933,551.84944 C930.508014,552.097858 930.097678,552.401574 927.970516,553.373964 C956.171464,550.666959 982.781733,548.104701 1009.34613,545.537855 C1009.42345,545.744088 1009.50233,545.951215 1009.5766,546.157449 C1004.08016,547.21608 998.658883,548.323489 993.056614,549.323468 C945.730228,557.738506 898.172006,566.128259 850.330951,574.456098 C842.936613,575.737263 841.21166,576.827209 842.852326,578.07464 C845.396672,579.997623 847.543937,581.988037 850.294722,583.879747 C852.195024,585.181417 849.894911,586.544353 843.437817,587.873917 C814.46678,593.825509 785.430917,599.778224 755.981206,605.594888 C745.68974,607.621302 739.602174,607.505575 735.465655,605.791852 C735.238195,605.696661 735.111632,605.583025 734.906521,605.483441 C724.83669,600.678692 699.557538,602.556634 679.29417,609.596656 C672.241084,612.041901 672.926342,614.803276 681.111148,616.443302 C682.851994,616.790001 684.932812,617.051555 686.806936,617.36672 C692.961414,618.401972 692.139543,619.200494 682.400997,620.923321 C664.932813,624.006994 647.345753,625.309621 629.903502,626.539706 C623.848221,626.966305 625.890573,625.91768 627.300555,624.874639 C630.464478,622.537202 633.534075,620.169122 634.81831,617.967691 C635.32053,617.112327 631.834256,616.111404 628.447717,616.194134 C624.492437,616.289887 617.12745,617.32506 613.96443,618.259515 C608.379061,619.910435 603.745685,621.818006 600.729242,623.572263 C595.360429,626.695606 591.12908,627.813422 577.889056,628.549587 C559.616938,629.562958 545.62322,628.815876 534.906437,626.923961 C533.474857,626.673134 534.218607,625.596943 535.766527,624.930506 C540.631698,622.834364 546.765828,620.757898 551.603604,618.659625 C554.955847,617.205161 556.290949,615.4873 550.187081,615.566457 C545.751986,615.624095 538.61287,616.939604 532.945343,617.869754 C530.616657,618.251127 528.831774,619.089106 527.088902,619.733239 C520.032751,622.341567 515.680234,623.139298 505.560872,623.095812 C495.094595,623.051602 487.128434,622.144856 484.159789,620.068639 C479.969719,617.127058 484.688387,615.185971 501.783148,612.459855 C524.7072,608.791574 533.348672,605.062795 525.913117,602.076969 C521.226316,600.188809 506.099063,600.193534 494.444337,602.085609 C480.119318,604.406917 465.293355,604.151705 465.072328,601.135948 C464.705338,595.557656 465.786181,589.814099 467.155529,584.052912 C467.699916,581.835754 472.870052,580.726135 483.340983,580.10781 C493.477863,579.509062 501.927124,577.586767 507.755742,575.544299 C510.498709,574.583015 509.444464,573.114037 507.919381,572.262162 C496.428731,565.807547 484.503245,559.459806 473.008576,553.063513 C471.749198,552.36118 471.175573,551.535836 470.28599,550.76766 C470.952563,550.639304 471.619758,550.509184 472.288195,550.379938" id="Fill-1" fill-opacity="0.36251639" fill="#D2D2D2" filter="url(#filter-1)"></path>
        <path d="M631.196711,594.827707 C622.024762,596.379409 612.989015,598.042397 603.685264,599.497331 C593.99868,601.009511 591.523277,601.814184 593.514316,603.667553 C595.227126,605.256199 602.007284,603.553189 606.701353,603.003096 C609.783837,602.642134 612.896348,602.014783 615.872495,601.452827 C622.940501,600.117148 626.495109,600.139307 627.799033,601.549159 C628.742863,602.565922 630.534712,603.514787 633.276897,604.196082 C635.006747,604.6253 639.179906,604.50584 642.26216,604.631641 C643.890223,603.731377 647.137146,602.62648 646.878401,601.965747 C645.825466,599.324657 643.754889,596.812936 641.922356,594.276933 C641.737061,594.016324 640.499226,593.90273 639.266176,593.603443 M502.48098,559.554958 C502.69575,560.093324 502.43082,560.715254 503.210652,561.154409 C509.843118,564.87272 516.798499,568.544583 523.568745,572.258738 C537.71002,579.937997 552.008745,587.632116 566.437712,595.344663 C570.622283,597.560816 570.482007,597.599949 584.740375,595.815452 C603.888823,593.41399 623.054763,591.074779 642.065812,588.525354 C650.091348,587.446802 654.031932,587.558168 657.422042,588.552062 C667.258482,591.42488 677.912333,594.132885 687.784968,597.017615 C690.88126,597.919043 694.305301,597.959874 701.088632,596.841494 C779.897461,583.7602 858.178658,570.659835 935.813206,557.467898 C938.568289,556.996447 940.908842,556.251984 945.638453,555.09922 C939.784146,555.382025 936.741262,555.398887 933.578816,555.703486 C906.999799,558.26234 880.355766,560.86771 853.668834,563.456946 C794.22635,569.191941 734.539163,574.930047 674.655492,580.560644 C670.502401,580.949342 665.437351,581.014581 662.8503,580.658959 C615.494362,574.130033 568.834222,567.522174 522.347234,560.978313 C516.957622,560.216757 511.002952,559.610541 505.319184,558.932204 M523.552765,557.05689 C524.817407,555.810551 525.983181,555.139467 525.958252,554.612557 C525.758397,549.437781 531.008118,543.796669 543.0108,537.809615 C558.806395,529.928141 584.693308,523.074685 616.92341,517.624117 C635.437026,514.481392 655.047378,512.208087 673.541105,509.081516 C691.32554,506.066754 709.070675,502.686946 725.456355,499.049574 C744.624946,494.782019 762.324316,490.062626 779.845688,485.721401 C771.686814,490.756288 757.577854,496.130441 742.353543,501.387486 C725.646649,507.14232 707.715827,512.826615 689.442973,518.444553 C669.897823,524.435378 653.398429,530.439769 642.176479,536.720267 C631.556451,542.666382 634.888125,546.456462 650.724584,548.441622 C680.230846,552.133553 726.816951,545.100941 745.856961,533.588666 C751.659884,530.08483 749.538891,526.756894 749.51373,523.537108 C749.509953,520.429899 747.151992,517.614383 746.51476,514.584147 C745.723331,510.694336 751.496993,506.747192 769.360194,502.302143 C792.550225,496.511861 816.044665,490.695199 834.134452,484.102605 C837.699311,482.801886 840.666096,481.466412 844.714249,479.81949 C846.59763,482.552005 839.572925,485.466508 833.020065,488.445806 C818.395413,495.089019 801.624084,501.769487 795.079617,508.29858 C791.249929,512.134778 802.148952,514.604376 818.284083,513.404999 C841.514163,511.674649 860.169494,506.949162 864.203903,501.269536 C867.799248,496.250063 869.48628,491.382746 870.605355,486.612844 C871.777046,481.783857 874.507272,476.817333 885.919473,471.349492 C892.619628,468.137429 903.500969,464.919486 912.494759,461.702177 C913.105816,461.739074 913.720009,461.775965 914.332966,461.811969 C911.308302,464.590719 907.682855,467.421041 905.415819,470.13496 C901.621177,474.706707 908.603119,477.661678 913.332285,480.941429 C920.569353,485.914508 928.405496,490.803134 925.269695,497.397596 C923.238547,501.737987 916.472595,505.963661 897.909313,510.296188 C879.884901,514.490467 862.34134,518.833254 844.891382,523.183413 C824.83956,528.167678 817.600268,534.96906 828.645721,538.040641 C837.623316,540.528718 863.502617,538.884358 879.979893,534.864473 C898.316194,530.37828 909.186971,525.844461 911.160161,521.057429 C912.055868,518.900198 913.728712,516.659437 915.571842,514.415657 C917.940546,511.542427 923.937783,508.620643 932.280027,505.641909 C942.789302,501.883087 952.768591,498.086266 964.381701,494.285121 C963.256197,495.345103 962.660187,496.388263 960.917275,497.467663 C950.434685,503.957108 954.245555,508.708693 959.285605,513.424523 C965.919345,519.548498 969.591692,526.125765 964.529208,533.82562 C960.679863,539.756058 951.825721,545.738752 931.33933,551.84944 C930.508014,552.097858 930.097678,552.401574 927.970516,553.373964 C956.171464,550.666959 982.781733,548.104701 1009.34613,545.537855 C1009.42345,545.744088 1009.50233,545.951215 1009.5766,546.157449 C1004.08016,547.21608 998.658883,548.323489 993.056614,549.323468 C945.730228,557.738506 898.172006,566.128259 850.330951,574.456098 C842.936613,575.737263 841.21166,576.827209 842.852326,578.07464 C845.396672,579.997623 847.543937,581.988037 850.294722,583.879747 C852.195024,585.181417 849.894911,586.544353 843.437817,587.873917 C814.46678,593.825509 785.430917,599.778224 755.981206,605.594888 C745.68974,607.621302 739.602174,607.505575 735.465655,605.791852 C735.238195,605.696661 735.111632,605.583025 734.906521,605.483441 C724.83669,600.678692 699.557538,602.556634 679.29417,609.596656 C672.241084,612.041901 672.926342,614.803276 681.111148,616.443302 C682.851994,616.790001 684.932812,617.051555 686.806936,617.36672 C692.961414,618.401972 692.139543,619.200494 682.400997,620.923321 C664.932813,624.006994 647.345753,625.309621 629.903502,626.539706 C623.848221,626.966305 625.890573,625.91768 627.300555,624.874639 C630.464478,622.537202 633.534075,620.169122 634.81831,617.967691 C635.32053,617.112327 631.834256,616.111404 628.447717,616.194134 C624.492437,616.289887 617.12745,617.32506 613.96443,618.259515 C608.379061,619.910435 603.745685,621.818006 600.729242,623.572263 C595.360429,626.695606 591.12908,627.813422 577.889056,628.549587 C559.616938,629.562958 545.62322,628.815876 534.906437,626.923961 C533.474857,626.673134 534.218607,625.596943 535.766527,624.930506 C540.631698,622.834364 546.765828,620.757898 551.603604,618.659625 C554.955847,617.205161 556.290949,615.4873 550.187081,615.566457 C545.751986,615.624095 538.61287,616.939604 532.945343,617.869754 C530.616657,618.251127 528.831774,619.089106 527.088902,619.733239 C520.032751,622.341567 515.680234,623.139298 505.560872,623.095812 C495.094595,623.051602 487.128434,622.144856 484.159789,620.068639 C479.969719,617.127058 484.688387,615.185971 501.783148,612.459855 C524.7072,608.791574 533.348672,605.062795 525.913117,602.076969 C521.226316,600.188809 506.099063,600.193534 494.444337,602.085609 C480.119318,604.406917 465.293355,604.151705 465.072328,601.135948 C464.705338,595.557656 465.786181,589.814099 467.155529,584.052912 C467.699916,581.835754 472.870052,580.726135 483.340983,580.10781 C493.477863,579.509062 501.927124,577.586767 507.755742,575.544299 C510.498709,574.583015 509.444464,573.114037 507.919381,572.262162 C496.428731,565.807547 484.503245,559.459806 473.008576,553.063513 C471.749198,552.36118 471.175573,551.535836 470.28599,550.76766 C470.952563,550.639304 471.619758,550.509184 472.288195,550.379938" id="Fill-1" fill-opacity="0.470334353" fill="#D2D2D2" filter="url(#filter-2)"></path>
        <path d="M500,0 C683.910822,0 833,149.089178 833,333 C833,516.910822 683.910822,666 500,666 C316.089178,666 167,516.910822 167,333 C167,149.089178 316.089178,0 500,0 Z M500,8 C320.507456,8 175,153.507456 175,333 C175,512.492544 320.507456,658 500,658 C679.492544,658 825,512.492544 825,333 C825,153.507456 679.492544,8 500,8 Z" id="形状结合" stroke="#5FDDD3" fill="url(#linearGradient-3)"></path>
        <g id="U" transform="translate(509.000000, 82.000000)" fill="#94CFFF" stroke="#FEFFE4">
            <path d="M220.5,152 L1,152 L1.5,0.1986295 C8.38652305,0.471106891 14.7593453,1.02214784 21.4916914,1.84079541 L21,132 L187.5,132 C172.002609,106.179939 152.428859,84.457486 128.382355,66.5208364 L159.645896,66.4482557 C185.741408,90.3079581 206.368392,119.026854 220.5,152" id="路径"></path>
        </g>
        <g id="S" transform="translate(270.000000, 82.500000)" fill="#94CFFF" stroke="#FEFFE4" stroke-linecap="square">
            <path d="M0.116034642,152.085425 L220,152 L220,65 L94.0640768,64.9506695 C129.645674,38.8390122 173.014465,22.7155858 220.039023,20.7107253 L220.080326,0.693197788 C148.973569,3.46778216 85.491635,35.9412089 41.6915581,86.0564442 L200,85 L200,132 L9.78349806,132.056182 C6.27551738,138.564697 3.04764869,145.246492 0.116034642,152.085425" id="直线-4"></path>
        </g>
        <g id="T" transform="translate(209.500000, 253.500000)" fill="url(#radialGradient-4)" stroke="url(#radialGradient-5)" stroke-linecap="square" stroke-width="9">
            <path d="M20.7511919,91 L0.72389904,91.001429 C0.575094402,87.1860813 0.5,83.3518103 0.5,79.5 C0.5,52.0781533 4.30602103,25.6445187 11.4186228,0.5 L569.5,0.5 C576.577864,25.5878241 580.5,52.1476326 580.5,79.5 C580.5,83.4025209 580.422915,87.1349268 580.270185,91 L560.254017,91 C560.417455,87.1435735 560.5,83.3966387 560.5,79.5 C560.5,59.2435438 558.269311,39.4821975 554.040182,20.5 L300.625043,20.5 L300.5,20.5 L301,369.350327 C297.526118,369.473571 294.003953,369.5 290.5,369.5 C287.352499,369.5 284.123322,369.414143 281,369.314612 L280.5,20.5 L26.9349962,20.5 C22.7219609,39.4479697 20.5,59.2832103 20.5,79.5 C20.5,83.4378225 20.5842994,87.104691 20.7511919,91.001429" id="直线" filter="url(#filter-6)"></path>
            <path d="M20.7511919,91 L0.72389904,91.001429 C0.575094402,87.1860813 0.5,83.3518103 0.5,79.5 C0.5,52.0781533 4.30602103,25.6445187 11.4186228,0.5 L569.5,0.5 C576.577864,25.5878241 580.5,52.1476326 580.5,79.5 C580.5,83.4025209 580.422915,87.1349268 580.270185,91 L560.254017,91 C560.417455,87.1435735 560.5,83.3966387 560.5,79.5 C560.5,59.2435438 558.269311,39.4821975 554.040182,20.5 L300.625043,20.5 L300.5,20.5 L301,369.350327 C297.526118,369.473571 294.003953,369.5 290.5,369.5 C287.352499,369.5 284.123322,369.414143 281,369.314612 L280.5,20.5 L26.9349962,20.5 C22.7219609,39.4479697 20.5,59.2832103 20.5,79.5 C20.5,83.4378225 20.5842994,87.104691 20.7511919,91.001429" id="直线"></path>
        </g>
        <g id="A" transform="translate(250.000000, 294.000000)" fill="url(#linearGradient-7)">
            <path d="M220.5,0.5 L220.507902,287.278077 C213.751491,286.483907 207.072062,285.420321 200.49152,284.098352 L200.49152,284.098352 L200.5,110.5 L31.284144,110.5 C44.0338253,149.420122 66.8923258,183.832511 96.7487242,210.5 L96.7487242,210.5 L68.0824268,210.5 C25.6773845,165.702369 -1.42108547e-13,105.553784 -1.42108547e-13,39 C-1.42108547e-13,25.9634286 0.99784378,12.9982433 2.92132096,0.5 L2.92132096,0.5 L220.5,0.5 Z M200.5,20.5 L20.724772,20.5 C20.244637,26.5679595 20,32.8086255 20,39 C20,56.7409997 22.0086493,73.9123054 25.8109334,90.5 L25.8109334,90.5 L200.5,90.5 L200.5,20.5 Z" id="形状结合"></path>
        </g>
        <g id="O" transform="translate(530.000000, 294.000000)" fill="url(#linearGradient-8)">
            <path d="M217.064611,0.5 C218.99729,13.0271877 220,25.9316824 220,39 C220,166.718482 124.145935,272.067972 0.5,287.148325 L0.5,287.148325 L0.5,0.5 Z M199.300845,20.5 L20.5,20.5 L20.5,263.447608 C123.25337,240.447339 200,148.690998 200,39 C200,32.9197141 199.764063,26.4614181 199.300845,20.5 Z" id="形状结合"></path>
        </g>
        <g id="yuan" transform="translate(209.851643, 43.000000)" fill="url(#linearGradient-9)">
            <path d="M21,311.736602 C31.2360678,441.037193 132.404156,544.543918 260.652308,558.402102 L260.652308,558.402102 L260.656259,578.518837 C121.468083,564.460573 11.3424633,451.976059 0.950707129,311.736602 L0.950707129,311.736602 Z M579.360354,312 C569.083087,451.961807 459.382862,563.863207 320.648357,578.406116 L320.648357,558.278363 C448.267577,543.853738 548.943466,440.851994 559.148357,312 L579.360354,312 Z M290.148357,-2.84217094e-14 C415.746308,-2.84217094e-14 522.838887,80.3007141 563.150718,192 L563.150718,192 L541.684599,192 C502.37049,91.5062841 404.571576,20 290.148357,20 C175.695894,20 77.9426081,91.0471554 38.6483575,191.581543 L38.6483575,191.581543 L17.2754542,191.581543 C57.5766999,79.86229 164.53611,-2.84217094e-14 290.148357,-2.84217094e-14 Z" id="形状结合" filter="url(#filter-10)"></path>
        </g>
        <circle id="椭圆形" transform="translate(500.000000, 333.000000) scale(-1, 1) translate(-500.000000, -333.000000) " cx="500" cy="333" r="295"></circle>
        <g id="Toobe-GuangZhou-Univ" fill-rule="nonzero" transform="translate(760.000000, 59.500000) rotate(33.000000) translate(-760.000000, -59.500000) " fill="#000000" fill-opacity="1">
            <use filter="url(#filter-12)" xlink:href="#text-11"></use>
            <use xlink:href="#text-11"></use>
        </g>
        <path d="M1,26 L177.26114,204.67595 C187.329672,197.034634 199.885276,192.5 213.5,192.5 C229.975738,192.5 244.900457,199.140707 255.743566,209.891532 L377,103 L257.60236,211.818085 C267.471101,222.511227 273.5,236.801551 273.5,252.5 C273.5,266.518088 268.69269,279.41337 260.636737,289.627176 L429,462 L256.515242,294.329336 C245.614141,305.53754 230.370156,312.5 213.5,312.5 C195.614682,312.5 179.557131,304.674396 168.564604,292.260443 L111,342 L166.783373,290.153739 C158.474721,279.858262 153.5,266.760085 153.5,252.5 C153.5,235.250088 160.779445,219.700382 172.433995,208.755223 L1,26 Z M214,253 L170.293023,290.766383 C180.382097,302.828102 195.545115,310.5 212.5,310.5 C228.988691,310.5 243.782698,303.244198 253.863304,291.751311 L214,253 Z M157.5,255.5 C157.5,267.898019 161.602208,279.337916 168.523345,288.536412 L210.593392,249.433729 L176.931478,213.547589 C165.043926,223.636215 157.5,238.687119 157.5,255.5 Z M251.844291,217.067861 L219,247 L257.790788,286.713787 C263.913979,277.845985 267.5,267.091773 267.5,255.5 C267.5,240.544157 261.530542,226.982555 251.844291,217.067861 Z M212.5,200.5 C201.280285,200.5 190.845226,203.859516 182.145889,209.627486 L216.518378,244.470685 L249.82774,215.106077 C240.021781,206.040031 226.907862,200.5 212.5,200.5 Z" id="形状结合" stroke="#F9BC3B" fill="#F7C557"></path>
    </g>
</svg>